<svg xmlns="http://www.w3.org/2000/svg" width="642" height="133" viewBox="0 0 642 133" version="1.1"><path d="M 11.999 7.728 C 9.886 10.414, 9.859 10.962, 10.198 43.478 L 10.542 76.500 13.309 84.383 C 16.316 92.953, 22.565 103.186, 28.647 109.500 C 36.534 117.688, 43.831 121.929, 57 125.976 C 62.954 127.806, 66.369 127.975, 97.628 127.987 C 136.935 128.002, 135.087 128.437, 133.115 119.625 C 130.874 109.608, 116.445 84.989, 113.781 86.635 C 113.169 87.014, 112.974 86.850, 113.338 86.262 C 114.077 85.066, 103.380 74.734, 96.503 70.002 C 90.482 65.860, 77.058 59.162, 73.250 58.400 C 70.870 57.924, 69.928 58.265, 68.674 60.055 C 66.430 63.259, 67.916 65.357, 74.598 68.416 C 87.119 74.149, 101.657 85.737, 110.798 97.271 C 115.825 103.615, 121.261 112.689, 122.467 116.750 L 123.135 119 93.749 119 C 61.579 119, 59.291 118.691, 47.500 112.754 C 40.032 108.994, 29.476 98.391, 25.802 90.958 C 20.500 80.235, 20 76.166, 20 43.750 L 20 13.921 48.181 14.048 C 72.265 14.156, 77.438 14.450, 83.756 16.065 C 94.192 18.735, 100.427 22.373, 108.632 30.584 C 119.883 41.842, 123.678 51.542, 124.567 71.320 C 125.138 84.022, 126.095 86.055, 130.734 84.427 C 133.488 83.460, 133.501 83.411, 133.810 72.978 C 134.441 51.670, 128.452 36.801, 112.976 21.250 C 109.555 17.812, 106.173 15, 105.461 15 C 104.749 15, 104.017 14.663, 103.833 14.250 C 103.353 13.169, 92.287 8.004, 87 6.393 C 83.567 5.347, 74.398 5.019, 48.323 5.011 L 14.145 5 11.999 7.728" stroke="none" fill="#04452b" fill-rule="evenodd"/><path d="M 361 43.674 L 361 55.349 358.750 53.241 C 351.785 46.716, 338.058 47.887, 330.803 55.624 C 326.644 60.059, 324.778 65.596, 324.778 73.500 C 324.778 81.915, 326.685 87.050, 331.737 92.234 C 338.230 98.898, 349.754 100.414, 357.078 95.567 L 361 92.972 361 95.486 C 361 97.962, 361.121 98, 369 98 L 377 98 377 65 L 377 32 369 32 L 361 32 361 43.674 M 426.718 35.092 C 416.085 37.595, 410 44.630, 410 54.417 C 410 62.898, 416.072 68.448, 429.933 72.636 C 434.645 74.060, 439.288 75.919, 440.250 76.767 C 444.742 80.727, 439.955 85.670, 432.684 84.580 C 428.058 83.886, 416.685 78.918, 415.561 77.099 C 414.055 74.661, 411.874 76.307, 408.959 82.081 C 405.345 89.241, 405.450 89.473, 414.264 93.803 C 426.102 99.617, 439.476 100.285, 449.656 95.568 C 456.380 92.453, 459.283 88.239, 459.820 80.813 C 460.623 69.710, 456.396 64.944, 441.345 59.984 C 427.951 55.571, 425.186 52.890, 430.463 49.432 C 433.442 47.481, 439.540 48.495, 448.409 52.417 L 454.022 54.900 457.011 48.978 C 458.655 45.722, 460 42.603, 460 42.049 C 460 40.490, 452.739 37.151, 445.781 35.511 C 438.844 33.875, 432.479 33.735, 426.718 35.092 M 164.667 35.667 C 164.300 36.033, 164 50.208, 164 67.167 L 164 98 173 98 L 182 98 182 87 L 182 76 195.500 76 L 209 76 209 69 L 209 62 195.500 62 L 182 62 182 55.500 L 182 49 196.500 49 L 211 49 211 42 L 211 35 188.167 35 C 175.608 35, 165.033 35.300, 164.667 35.667 M 229.994 49.934 C 218.766 53.349, 212.653 61.853, 212.688 74.003 C 212.711 81.817, 215.022 86.980, 220.857 92.252 C 225.583 96.522, 230.182 97.987, 238.884 97.994 C 247.275 98.002, 252.111 96.452, 257.143 92.145 C 262.765 87.333, 264.951 82.150, 264.978 73.566 C 265.015 62.042, 259.531 54.073, 249.128 50.528 C 244.453 48.935, 234.313 48.620, 229.994 49.934 M 285.994 49.934 C 274.787 53.343, 268.745 61.762, 268.719 74.002 C 268.703 81.814, 270.996 86.957, 276.857 92.252 C 281.583 96.522, 286.182 97.987, 294.884 97.994 C 303.275 98.002, 308.111 96.452, 313.143 92.145 C 318.729 87.364, 320.951 82.139, 320.978 73.718 C 321.015 62.332, 316.091 54.674, 306.402 51.049 C 300.797 48.952, 290.985 48.416, 285.994 49.934 M 477 50.469 C 470.344 52.377, 467 53.839, 467 54.842 C 467 55.332, 467.936 57.986, 469.081 60.740 L 471.161 65.747 476.091 63.873 C 482.090 61.594, 488.782 61.459, 491.777 63.557 C 496.171 66.634, 494.558 67.698, 484.719 68.213 C 469.744 68.996, 464.012 73.171, 464.004 83.300 C 463.999 89.398, 465.976 93.204, 470.647 96.091 C 475.712 99.221, 485.159 99.284, 490.350 96.221 C 493.916 94.117, 494 94.113, 494 96.034 C 494 97.835, 494.715 98, 502.500 98 L 511 98 510.994 81.250 C 510.991 72.037, 510.544 62.899, 510.001 60.943 C 508.820 56.692, 504.874 52.680, 499.782 50.553 C 495.280 48.672, 483.420 48.629, 477 50.469 M 513.010 49.750 C 513.016 50.163, 516.960 61.075, 521.774 74 L 530.528 97.500 539.120 97.787 L 547.712 98.074 556.726 74.074 C 561.684 60.874, 565.499 49.832, 565.203 49.537 C 564.908 49.242, 561.169 49, 556.894 49 L 549.121 49 546.622 57.250 C 545.248 61.788, 543.107 68.983, 541.865 73.240 L 539.605 80.980 537.729 74.740 C 536.697 71.308, 534.517 64.112, 532.883 58.750 L 529.914 49 521.457 49 C 516.806 49, 513.005 49.337, 513.010 49.750 M 580.759 50.423 C 569.631 54.394, 564.430 62.913, 565.168 75.961 C 565.689 85.192, 569.408 91.303, 576.880 95.206 C 581.465 97.601, 583.389 97.999, 590.364 97.990 C 599.042 97.980, 606.570 95.457, 610.232 91.333 C 611.899 89.455, 611.800 89.220, 607.595 85.094 C 603.326 80.904, 603.169 80.843, 600.736 82.437 C 596.549 85.181, 591.871 86.113, 588.264 84.922 C 585.296 83.943, 582 80.709, 582 78.777 C 582 78.350, 589.425 78, 598.500 78 L 615 78 615 75.210 C 615 70.248, 611.984 60.668, 609.325 57.181 C 603.937 50.118, 590.513 46.942, 580.759 50.423 M 584.455 63.455 C 579.971 67.938, 581.032 69, 590 69 C 596.549 69, 598 68.720, 598 67.455 C 598 64.762, 593.337 61, 590 61 C 588.052 61, 586.002 61.907, 584.455 63.455 M 233.251 64.537 C 232.045 65.382, 230.559 67.924, 229.950 70.186 C 226.978 81.223, 237.590 89.564, 245.077 82.077 C 247.465 79.689, 248 78.308, 248 74.527 C 248 69.445, 245.976 64.589, 243.455 63.621 C 240.560 62.510, 235.496 62.964, 233.251 64.537 M 289.261 64.529 C 286.296 66.607, 284.770 72.462, 286.020 76.968 C 287.242 81.374, 287.942 82.407, 290.684 83.850 C 294.397 85.805, 297.956 85.197, 301.077 82.077 C 303.465 79.689, 304 78.308, 304 74.527 C 304 69.445, 301.976 64.589, 299.455 63.621 C 296.565 62.512, 291.497 62.963, 289.261 64.529 M 344.562 65.528 C 340.208 70.225, 340.773 79.103, 345.669 82.955 C 353.550 89.154, 362.990 79.831, 359.402 69.393 C 357.734 64.540, 355.653 63, 350.761 63 C 347.921 63, 346.287 63.666, 344.562 65.528 M 481.250 78.662 C 479.139 79.514, 479.750 84.796, 482.105 86.056 C 486.738 88.536, 494 84.702, 494 79.777 C 494 78.271, 493.123 78.012, 488.250 78.079 C 485.087 78.122, 481.938 78.385, 481.250 78.662" stroke="none" fill="#101828" fill-rule="evenodd"/><path d="M 30.750 24.582 C 29.738 25.596, 29.786 76, 30.799 76 C 31.239 76, 31.412 77.598, 31.184 79.552 C 30.339 86.792, 36.163 101.047, 42.779 107.928 C 51.736 117.245, 59.946 118.960, 95.714 118.983 L 122.929 119 121.010 114.523 C 113.956 98.068, 94.106 78.417, 75.496 69.466 C 66.456 65.118, 64.539 61.658, 69.405 58.470 C 71.649 57, 72.233 57.071, 78.155 59.548 C 102.411 69.691, 123.680 90.978, 131.506 112.945 C 132.630 116.099, 132.789 114.660, 132.914 100.200 C 133.055 83.945, 133.049 83.903, 130.960 85.021 C 129.319 85.900, 128.340 85.797, 126.433 84.548 C 124.126 83.037, 124 82.439, 124 73.039 C 124 57.905, 121.123 47.503, 114.265 37.836 C 110.628 32.711, 107.358 30.461, 98.427 26.939 C 92.767 24.708, 91.127 24.585, 62 24.217 C 45.225 24.004, 31.163 24.169, 30.750 24.582" stroke="none" fill="#a6da37" fill-rule="evenodd"/><path d="" stroke="none" fill="#11252c" fill-rule="evenodd"/><path d="M 33.310 14.748 C 40.905 14.918, 53.055 14.918, 60.310 14.747 C 67.564 14.576, 61.350 14.437, 46.500 14.438 C 31.650 14.438, 25.714 14.578, 33.310 14.748 M 124.310 73.500 C 124.315 76.800, 124.502 78.029, 124.725 76.232 C 124.947 74.435, 124.943 71.735, 124.715 70.232 C 124.486 68.729, 124.304 70.200, 124.310 73.500 M 110 81.500 C 113.543 85.075, 116.667 88, 116.942 88 C 117.217 88, 114.543 85.075, 111 81.500 C 107.457 77.925, 104.333 75, 104.058 75 C 103.783 75, 106.457 77.925, 110 81.500 M 102.500 89 C 105.766 92.300, 108.662 95, 108.937 95 C 109.212 95, 106.766 92.300, 103.500 89 C 100.234 85.700, 97.338 83, 97.063 83 C 96.788 83, 99.234 85.700, 102.500 89 M 34.958 103.250 C 37.410 105.862, 39.548 108, 39.708 108 C 40.459 108, 39.665 107.102, 35.250 102.958 L 30.500 98.500 34.958 103.250" stroke="none" fill="#a3da34" fill-rule="evenodd"/></svg>