<svg xmlns="http://www.w3.org/2000/svg" width="642" height="133" viewBox="0 0 642 133" version="1.1"><path d="M 43.750 26.567 C 42.576 27.766, 42.871 76.929, 44.092 83.566 C 45.225 89.725, 50.897 103.201, 52.871 104.420 C 54.664 105.528, 54.180 107.002, 52.250 106.309 C 50.364 105.633, 50.473 105.790, 53.442 108.033 C 55.157 109.329, 55.286 109.325, 54.545 108 C 54.083 107.175, 54.636 107.455, 55.773 108.622 C 56.909 109.789, 59.840 111.712, 62.285 112.896 C 70.864 117.049, 78.774 117.964, 106.250 117.983 C 130.476 117.999, 132 117.892, 132 116.183 C 132 115.183, 129.665 110.448, 126.810 105.660 C 118.494 91.709, 101.845 76.681, 86.624 69.387 C 78.499 65.493, 77.029 63.731, 79.565 60.928 C 82.143 58.080, 84.682 58.518, 94.440 63.497 C 108.875 70.863, 116.733 77.119, 126.470 89 C 131.454 95.081, 140.136 110.053, 141.265 114.514 C 141.542 115.606, 141.820 108.873, 141.884 99.550 C 141.974 86.367, 141.733 82.867, 140.800 83.800 C 140.140 84.460, 138.800 85, 137.823 85 C 134.341 85, 133.209 81.097, 132.747 67.500 C 132.400 57.307, 131.869 53.524, 130.286 49.977 C 127.113 42.873, 121.586 34.862, 116.846 30.500 L 112.500 26.500 116.500 30.838 L 120.500 35.175 116.933 33.097 C 114.971 31.953, 110.696 30.048, 107.433 28.863 C 102.018 26.897, 99.013 26.669, 73 26.255 C 57.325 26.005, 44.163 26.146, 43.750 26.567" stroke="none" fill="#a6da37" fill-rule="evenodd"/><path d="M 24.981 10.750 C 22.845 13.465, 22.822 13.901, 23.240 45 C 23.703 79.470, 23.729 79.638, 30.616 93.221 C 37.159 106.125, 51.943 119.236, 63.679 122.542 C 65.231 122.979, 66.725 123.405, 67 123.488 C 74.716 125.820, 78.177 126.009, 108.658 125.764 L 141.500 125.500 141.404 119.500 C 141.323 114.369, 140.620 112.196, 136.553 104.500 C 126.698 85.850, 113.981 73.468, 94.440 63.497 C 84.682 58.518, 82.143 58.080, 79.565 60.928 C 77.029 63.731, 78.499 65.493, 86.624 69.387 C 101.845 76.681, 118.494 91.709, 126.810 105.660 C 129.665 110.448, 132 115.183, 132 116.183 C 132 117.892, 130.476 117.999, 106.250 117.983 C 77.220 117.963, 70.548 117.062, 60.116 111.750 C 50.812 107.013, 43.203 98.994, 37.898 88.336 L 33.500 79.500 33.185 48.163 L 32.870 16.825 63.685 17.248 C 92.493 17.643, 94.844 17.812, 99.784 19.844 C 110.964 24.443, 118.763 30.737, 124.729 39.977 C 131.396 50.302, 132.264 53.281, 132.747 67.500 C 133.211 81.175, 134.338 85, 137.901 85 C 141.732 85, 142.236 82.740, 141.858 67.260 L 141.498 52.489 136.699 42.994 C 128.630 27.034, 116.367 15.944, 100.871 10.596 C 93.364 8.005, 93.285 8, 60.247 8 L 27.145 8 24.981 10.750" stroke="none" fill="#0c4a2c" fill-rule="evenodd"/><path d="M 360 44.568 L 360 55.136 357.035 53.025 C 353.245 50.327, 345.447 49.378, 340.388 51.001 C 330.704 54.106, 325.778 61.690, 325.778 73.492 C 325.778 87.711, 332.576 96.151, 345.164 97.559 C 349.604 98.056, 351.298 97.746, 355.250 95.714 C 359.678 93.438, 360 93.398, 360 95.136 C 360 96.799, 360.861 97, 368 97 L 376 97 376 65.500 L 376 34 368 34 L 360 34 360 44.568 M 423.500 36.871 C 418.657 38.153, 414.423 40.708, 411.619 44.041 C 408.356 47.919, 407.625 50.743, 408.237 57.111 C 409.034 65.406, 415.218 70.057, 430.655 73.972 C 432.941 74.552, 435.850 75.867, 437.119 76.896 C 439.155 78.544, 439.287 79.074, 438.235 81.383 C 437.185 83.687, 436.457 84, 432.147 84 C 426.465 84, 420.913 82.233, 415.134 78.585 C 412.882 77.163, 410.812 76, 410.534 76 C 410.256 76, 408.644 78.742, 406.952 82.094 C 404.018 87.908, 403.960 88.255, 405.688 89.617 C 412.765 95.195, 424.494 98.474, 434.633 97.710 C 448.180 96.688, 456 90.006, 456 79.451 C 456 69.630, 451.428 65, 437.228 60.441 C 427.238 57.234, 423.986 54.955, 425.623 52.313 C 427.421 49.410, 437.057 49.887, 444.280 53.236 L 450.060 55.917 453.267 49.414 C 456.915 42.014, 457.105 42.391, 448 38.900 C 442.053 36.620, 428.646 35.510, 423.500 36.871 M 171 67 L 171 97 179.500 97 L 188 97 188 86.500 L 188 76 201.500 76 L 215 76 215 69.500 L 215 63 201.500 63 L 188 63 188 57 L 188 51 202.500 51 L 217 51 217 44 L 217 37 194 37 L 171 37 171 67 M 235.500 50.935 C 228.307 52.686, 222.270 57.715, 219.553 64.218 C 217.160 69.947, 217.524 79.784, 220.326 85.093 C 228.147 99.911, 251.554 102.266, 262.900 89.377 C 268.783 82.693, 270.205 75.419, 267.445 66.127 C 263.878 54.114, 249.848 47.442, 235.500 50.935 M 289.500 50.876 C 278.246 53.837, 272 62.182, 272 74.256 C 272 85.970, 279.073 94.628, 290.598 97.020 C 310.297 101.110, 326.068 86.768, 322.001 68.463 C 319.600 57.656, 311.121 50.968, 299.100 50.399 C 295.470 50.227, 291.150 50.442, 289.500 50.876 M 474.196 50.987 C 472.379 51.417, 468.910 52.526, 466.487 53.452 L 462.082 55.134 464.125 60.317 C 465.248 63.168, 466.285 65.617, 466.428 65.761 C 466.571 65.904, 468.671 65.318, 471.094 64.459 C 477.863 62.058, 485.018 62.304, 487.212 65.013 C 488.195 66.228, 489 67.622, 489 68.111 C 489 68.600, 484.837 69.001, 479.750 69.002 C 465.597 69.004, 459.615 73.093, 459.615 82.766 C 459.615 88.964, 462.326 93.495, 467.544 96.021 C 472.982 98.654, 478.626 98.524, 484.331 95.636 C 488.708 93.420, 489 93.389, 489 95.136 C 489 96.799, 489.861 97, 497 97 L 505 97 504.994 81.250 C 504.991 72.588, 504.530 63.850, 503.970 61.832 C 502.735 57.384, 497.420 52.488, 492.277 51.060 C 487.975 49.865, 479.085 49.830, 474.196 50.987 M 572.420 51.411 C 566.562 53.245, 562.565 56.547, 559.595 62.003 C 557.464 65.918, 557.002 68.088, 557.009 74.135 C 557.017 80.416, 557.444 82.241, 559.907 86.535 C 566.668 98.323, 584.268 101.289, 597.534 92.877 L 602.317 89.843 597.815 85.341 L 593.313 80.839 589.906 82.916 C 587.904 84.137, 584.785 84.994, 582.339 84.996 C 578.870 84.999, 577.723 84.459, 575.441 81.750 L 572.705 78.500 588.965 78.225 L 605.224 77.949 604.515 72.225 C 604.124 69.076, 603.151 64.925, 602.352 63 C 598.007 52.536, 584.961 47.485, 572.420 51.411 M 507.578 53.250 C 507.970 54.487, 511.759 64.725, 515.997 76 L 523.703 96.500 532.101 96.761 L 540.500 97.022 549.117 74.011 L 557.735 51 549.511 51 L 541.286 51 536.954 65.538 C 534.553 73.596, 532.314 79.503, 531.931 78.788 C 531.550 78.080, 529.527 71.537, 527.434 64.250 L 523.629 51 515.247 51 C 507.010 51, 506.878 51.039, 507.578 53.250 M 575.455 64.455 C 571.542 68.367, 572.301 69, 580.906 69 C 588.360 69, 588.782 68.884, 588.282 66.969 C 586.949 61.872, 579.498 60.411, 575.455 64.455 M 238.856 64.476 C 232.283 68.147, 232.683 80.712, 239.472 83.805 C 243.556 85.666, 245.912 85.242, 249.077 82.077 C 251.531 79.622, 252 78.349, 252 74.133 C 252 70.350, 251.445 68.481, 249.750 66.555 C 246.964 63.389, 242.372 62.512, 238.856 64.476 M 293.110 64.355 C 287.958 67.298, 286.474 74.986, 289.956 80.696 C 293.662 86.773, 302.543 85.896, 305.132 79.198 C 306.575 75.462, 305.599 68.155, 303.357 65.912 C 300.850 63.406, 296.049 62.676, 293.110 64.355 M 347.302 64.012 C 341.466 66.362, 340.292 78.274, 345.457 82.717 C 351.206 87.662, 358.792 84.025, 359.710 75.883 C 360.730 66.831, 354.679 61.041, 347.302 64.012 M 476.250 78.662 C 475.563 78.940, 475 80.490, 475 82.108 C 475 87.565, 483.023 88.329, 487.016 83.253 C 490.384 78.971, 489.671 77.991, 483.250 78.079 C 480.087 78.122, 476.938 78.385, 476.250 78.662" stroke="none" fill="#fcfcfc" fill-rule="evenodd"/></svg>