<svg xmlns="http://www.w3.org/2000/svg" width="962" height="200" viewBox="0 0 962 200" version="1.1"><path d="M 27.239 66.250 L 27.477 108.500 27.750 66.762 L 28.022 25.023 67.261 24.750 L 106.500 24.476 66.750 24.238 L 27 24 27.239 66.250 M 44.255 84.693 C 44.611 127.930, 44.702 129.738, 46.869 136.283 C 50.081 145.986, 55.159 155.492, 61.196 163.103 C 65.405 168.410, 67.718 170.312, 72.967 172.789 C 87.206 179.505, 86.105 179.382, 135.342 179.765 L 180.184 180.114 179.458 176.808 C 178.296 171.518, 171.269 159.159, 164.500 150.500 C 149.018 130.695, 130.410 115.430, 109.327 105.237 C 98.890 100.192, 96.823 97.878, 98.825 93.485 C 100.973 88.770, 103.811 88.458, 112.602 91.969 C 144.731 104.804, 173.534 131.289, 187.676 161 C 191.649 169.348, 192.415 171.152, 193.830 175.500 C 194.533 177.658, 194.904 171.154, 195.153 152.320 C 195.460 129.126, 195.329 126.286, 194 127.418 C 189.883 130.926, 184.776 129.665, 183.050 124.713 C 182.472 123.057, 181.993 115.356, 181.985 107.601 C 181.970 92.760, 180.721 84.931, 176.785 75 C 172.998 65.442, 166.730 55.671, 163.044 53.577 C 162 52.985, 158.976 51.223, 156.323 49.663 C 153.671 48.102, 147.450 45.402, 142.500 43.663 L 133.500 40.500 88.693 40.193 L 43.887 39.887 44.255 84.693" stroke="none" fill="#a6da37" fill-rule="evenodd"/><path d="M 17.770 12.966 C 12.931 16.772, 12.861 17.606, 13.273 66.094 C 13.485 91.067, 13.963 113.172, 14.335 115.215 C 15.443 121.308, 20.053 135.144, 22.760 140.500 C 34.847 164.416, 55.345 181.551, 81.579 189.671 L 90.500 192.431 141.847 192.774 C 190.434 193.098, 193.268 193.019, 194.565 191.308 C 197.752 187.105, 195.605 177.659, 187.676 161 C 173.534 131.289, 144.731 104.804, 112.602 91.969 C 103.811 88.458, 100.973 88.770, 98.825 93.485 C 96.823 97.878, 98.890 100.192, 109.327 105.237 C 130.410 115.430, 149.018 130.695, 164.500 150.500 C 171.269 159.159, 178.296 171.518, 179.458 176.808 L 180.184 180.114 135.342 179.786 L 90.500 179.459 82.500 176.709 C 58.518 168.466, 40.690 151.497, 32.216 128.847 C 27.700 116.778, 27.007 108.241, 27.003 64.675 L 27 23.849 69.750 24.292 C 93.263 24.536, 114.300 25.055, 116.500 25.446 C 123.442 26.679, 136.808 31.640, 142.602 35.135 C 162.267 46.996, 175.367 64.939, 180.468 87 C 181.421 91.123, 181.976 98.657, 181.985 107.601 C 181.993 115.356, 182.472 123.057, 183.050 124.713 C 184.826 129.808, 189.898 130.931, 194.250 127.193 C 195.780 125.879, 196 123.694, 196 109.803 C 196 94.493, 194.613 83.113, 191.818 75.500 C 185.978 59.590, 179.390 49.170, 168.097 37.983 C 158.511 28.486, 148.240 21.637, 136.585 16.970 C 122.258 11.234, 119.981 11.036, 67.885 11.017 C 22.043 11.001, 20.177 11.073, 17.770 12.966" stroke="none" fill="#07462c" fill-rule="evenodd"/><path d="M 532 67.427 L 532 83.854 526.381 80.470 C 510.790 71.082, 491.041 77.015, 482.910 93.531 C 480.218 99, 479.645 101.459, 479.234 109.314 C 477.972 133.449, 491.025 149.055, 512.409 148.978 C 518.940 148.954, 525.758 146.511, 529.750 142.764 L 532 140.651 532 144.326 L 532 148 544.500 148 L 557 148 557 99.500 L 557 51 544.500 51 L 532 51 532 67.427 M 634.263 55.064 C 621.806 56.685, 611.166 63.695, 607.251 72.860 C 605.351 77.308, 605.135 87.211, 606.830 92.139 C 608.456 96.865, 613.899 102.409, 619.902 105.451 C 622.530 106.782, 629.772 109.339, 635.997 111.132 C 642.689 113.061, 648.476 115.371, 650.157 116.786 C 653.939 119.968, 653.977 124.081, 650.250 127.033 C 644.478 131.606, 627.021 127.686, 614.689 119.047 L 609.312 115.281 604.605 124.756 C 599.083 135.873, 599.015 135.658, 609.877 141.366 C 619.835 146.599, 630.658 149.276, 642 149.312 C 657.588 149.361, 668.879 144.589, 675.465 135.169 C 678.100 131.400, 678.540 129.802, 678.855 122.849 C 679.640 105.566, 673.282 99.159, 647.412 91.161 C 635.648 87.524, 632 85.115, 632 80.984 C 632 72.977, 645.970 73.187, 663.330 81.456 L 670.245 84.750 674.623 75.509 C 677.030 70.427, 679 65.825, 679 65.282 C 679 63.878, 666.603 58.402, 659.500 56.669 C 651.403 54.693, 641.805 54.083, 634.263 55.064 M 242 102 L 242 148 254.500 148 L 267 148 267 131.500 L 267 115 287.500 115 L 308 115 308 105.500 L 308 96 287.500 96 L 267 96 267 86 L 267 76 289 76 L 311 76 311 66 L 311 56 276.500 56 L 242 56 242 102 M 342 77.098 C 335.312 78.404, 325.607 83.545, 321.937 87.725 C 316.730 93.655, 313.704 101.393, 313.202 110.065 C 311.800 134.293, 329.096 150.236, 355.174 148.753 C 370.335 147.891, 381.323 141.184, 387.229 129.185 C 390.266 123.018, 390.500 121.824, 390.495 112.521 C 390.490 103.786, 390.150 101.775, 387.847 96.852 C 380.494 81.138, 362.036 73.185, 342 77.098 M 425 77.032 C 418.195 78.461, 408.564 83.594, 404.937 87.725 C 403.158 89.751, 400.532 93.904, 399.101 96.954 C 396.842 101.772, 396.500 103.816, 396.500 112.521 C 396.500 121.829, 396.734 123.017, 399.787 129.218 C 403.728 137.225, 409.906 143.022, 417.853 146.172 C 422.517 148.020, 425.510 148.418, 435.052 148.455 C 446.444 148.499, 446.709 148.448, 454.265 144.714 C 464.939 139.438, 470.507 132.405, 472.878 121.201 C 474.389 114.066, 474.291 109.555, 472.472 102.460 C 469.682 91.575, 461.894 82.975, 451.204 78.975 C 444.752 76.561, 431.813 75.602, 425 77.032 M 710.763 76.971 C 705.898 77.854, 697.948 80.299, 692.313 82.647 L 689.127 83.974 692.236 91.737 C 693.946 96.007, 695.434 99.629, 695.543 99.787 C 695.651 99.944, 699.140 98.932, 703.296 97.537 C 717.846 92.653, 730 95.337, 730 103.434 C 730 104.764, 728.275 105, 718.549 105 C 704.527 105, 698.349 106.240, 692.974 110.134 C 682.914 117.421, 682.146 133.623, 691.438 142.573 C 696.808 147.746, 702.499 149.424, 712.503 148.781 C 718.649 148.387, 720.897 147.741, 724.999 145.192 L 730 142.083 730 145.041 L 730 148 742 148 L 754 148 754 122.743 C 754 108.852, 753.560 95.954, 753.023 94.080 C 751.218 87.788, 747.118 83.184, 740.355 79.854 C 734.859 77.148, 732.729 76.679, 724.745 76.416 C 719.660 76.248, 713.369 76.498, 710.763 76.971 M 861.500 77.343 C 842.600 82.275, 831.760 99.365, 834.954 119.197 C 838.159 139.095, 853.321 150.173, 875.386 148.737 C 885.450 148.082, 893.461 145.150, 899.168 140.033 L 903.500 136.149 897.046 129.592 C 890.670 123.114, 890.567 123.057, 888.546 124.900 C 884.790 128.325, 879.860 130.165, 874.305 130.215 C 868.132 130.271, 865.007 128.531, 861.181 122.908 L 858.861 119.500 883.431 119.233 L 908 118.965 908 114.032 C 908 97.525, 899.816 83.694, 887.272 79 C 880.268 76.380, 868.173 75.602, 861.500 77.343 M 758.259 78.750 C 758.655 80.155, 780.914 139.622, 783.535 146.279 C 784.164 147.874, 785.532 148.029, 796.775 147.779 L 809.313 147.500 822.112 113.500 C 829.151 94.800, 834.930 78.938, 834.955 78.250 C 834.989 77.317, 831.965 77, 823.038 77 L 811.076 77 808.717 84.750 C 807.420 89.013, 804.365 99.358, 801.929 107.739 C 799.493 116.121, 797.275 122.980, 797 122.982 C 796.725 122.984, 794.275 115.452, 791.556 106.243 C 788.836 97.034, 785.777 86.688, 784.758 83.250 L 782.906 77 770.336 77 C 758.844 77, 757.809 77.150, 758.259 78.750 M 868.643 94.053 C 864.177 95.353, 859 101.203, 859 104.950 C 859 105.627, 863.439 106, 871.500 106 C 885.468 106, 885.943 105.699, 882.050 99.314 C 879.131 94.527, 873.970 92.502, 868.643 94.053 M 347 96.706 C 344.668 97.559, 340.954 101.223, 339.405 104.200 C 337.426 108.004, 337.616 117.741, 339.752 121.929 C 344.928 132.080, 358.156 132.395, 363.718 122.500 C 366.531 117.497, 366.773 109.046, 364.248 104.020 C 361.113 97.780, 353.219 94.433, 347 96.706 M 430 96.706 C 427.668 97.559, 423.954 101.223, 422.405 104.200 C 420.099 108.632, 420.577 119.071, 423.270 123.102 C 427.689 129.717, 436.272 131.673, 442.622 127.512 C 448.409 123.720, 450.862 110.972, 447.148 103.984 C 443.790 97.665, 436.196 94.441, 430 96.706 M 513 96.706 C 507.517 98.710, 503.668 105.577, 503.738 113.228 C 503.851 125.625, 514.220 133.339, 524 128.302 C 531.016 124.689, 534.273 112.031, 530.248 104.020 C 527.113 97.780, 519.219 94.433, 513 96.706 M 713.500 118.719 C 706.118 120.518, 706.092 129.827, 713.463 131.862 C 721.333 134.035, 730 128.564, 730 121.423 L 730 118 722.750 118.116 C 718.763 118.180, 714.600 118.451, 713.500 118.719" stroke="none" fill="#fcfcfc" fill-rule="evenodd"/></svg>